# xmcd
#
# Track frame offsets: 
#        150
#        18055
#        31949
#        60104
#        79747
#        97933
#        109582
#        130985
#        143025
#        154914
#        174814
#
# Disc length: 2620 seconds
#
# Revision: 0
# Processed by: cddbd v1.5.2PL0 Copyright (c) Steve Scherf et al.
# Submitted via: ExactAudioCopy v0.99pb4
#
DISCID=730a3a0b
DTITLE=Townes Van Zandt - Live In Hanau [1995]
DYEAR=1995
DGENRE=
TTITLE0=Loretta
TTITLE1=Dollar Bill Blues
TTITLE2=Automobile Blues
TTITLE3=Pancho and Lefty
TTITLE4=No Deeper Blue
TTITLE5=Lungs
TTITLE6=The Hole
TTITLE7=Buckskin Stallion
TTITLE8=Waitin' 'round to Die
TTITLE9=Blaze's Blues
TTITLE10=Two Girls
EXTD=
EXTT0=
EXTT1=
EXTT2=
EXTT3=
EXTT4=
EXTT5=
EXTT6=
EXTT7=
EXTT8=
EXTT9=
EXTT10=
PLAYORDER=
